<svg xmlns="http://www.w3.org/2000/svg" width="190" height="190" fill="none"><path fill="url(#a)" d="M160.963 129.037c-5.467 5.467-14.332 5.467-19.799 0l-24.137-24.138c-5.468-5.467-5.468-14.331 0-19.799l24.137-24.137c5.467-5.467 14.332-5.467 19.799 0L185.101 85.1c5.467 5.468 5.467 14.332 0 19.799l-24.138 24.138Zm-112.127 0c-5.468 5.467-14.332 5.467-19.8 0L4.9 104.899C-.568 99.432-.568 90.568 4.9 85.1l24.138-24.137c5.467-5.467 14.331-5.467 19.799 0L72.973 85.1c5.467 5.468 5.467 14.332 0 19.799l-24.137 24.138ZM104.9 185.1c-5.468 5.468-14.332 5.468-19.8 0l-24.137-24.137c-5.467-5.467-5.467-14.332 0-19.799L85.1 117.027c5.468-5.468 14.332-5.468 19.8 0l24.137 24.137c5.467 5.467 5.467 14.332 0 19.799L104.9 185.1Zm0-112.127c-5.468 5.468-14.332 5.468-19.8 0L60.963 48.836c-5.467-5.468-5.467-14.332 0-19.8L85.1 4.9c5.468-5.467 14.332-5.467 19.8 0l24.137 24.138c5.467 5.467 5.467 14.331 0 19.799L104.9 72.973Z"/><defs><linearGradient id="a" x1="149.166" x2="42.247" y1="30.943" y2="139.745" gradientUnits="userSpaceOnUse"><stop offset=".051" stop-color="#FFB6E1"/><stop offset="1" stop-color="#FBE3EA"/></linearGradient></defs></svg>